<?xml version="1.0" standalone="no"?>
<!DOCTYPE svg PUBLIC "-//W3C//DTD SVG 20010904//EN"
 "http://www.w3.org/TR/2001/REC-SVG-20010904/DTD/svg10.dtd">
<svg version="1.0" xmlns="http://www.w3.org/2000/svg"
 width="96.000000pt" height="96.000000pt" viewBox="0 0 96.000000 96.000000"
 preserveAspectRatio="xMidYMid meet">
<metadata>
Created by potrace 1.11, written by Peter Selinger 2001-2013
</metadata>
<g transform="translate(0.000000,96.000000) scale(0.100000,-0.100000)"
fill="#000000" stroke="none">
<path d="M361 945 c-162 -45 -282 -159 -335 -316 -56 -169 -12 -357 112 -483
55 -56 111 -91 196 -122 77 -28 222 -27 301 1 332 119 432 541 187 789 -118
120 -306 173 -461 131z m280 -75 c50 -20 126 -73 157 -110 167 -197 126 -493
-88 -634 -174 -114 -414 -78 -557 84 -59 67 -98 189 -95 294 6 188 169 366
362 395 61 9 155 -3 221 -29z"/>
<path d="M254 589 c-48 -17 -37 -46 21 -55 94 -15 158 -75 173 -164 13 -79 68
-78 58 0 -10 75 -45 133 -107 176 -48 33 -118 54 -145 43z"/>
<path d="M619 576 c-46 -16 -99 -54 -99 -70 0 -7 7 -21 15 -32 14 -18 16 -18
26 -1 17 30 93 62 155 66 18 1 24 39 7 45 -23 9 -65 6 -104 -8z"/>
</g>
</svg>
