<svg width="40" height="40" viewBox="0 0 40 40" fill="none" xmlns="http://www.w3.org/2000/svg">
<path d="M37.2995 31.0166H2.70048C1.20906 31.0166 0 29.8076 0 28.3161V27.7845C0 26.293 1.20906 25.084 2.70048 25.084H37.2996C38.791 25.084 40.0001 26.293 40.0001 27.7845V28.3161C40 29.8076 38.791 31.0166 37.2995 31.0166Z" fill="#FE9EFE"/>
<g style="mix-blend-mode:color-burn">
<path d="M39.9992 27.7842V28.3161C39.9992 29.8078 38.7907 31.0171 37.299 31.0171H35.7188C37.2105 31.0171 38.419 29.8078 38.419 28.3161V27.7842C38.419 26.2933 37.2105 25.084 35.7188 25.084H37.299C38.7907 25.084 39.9992 26.2934 39.9992 27.7842Z" fill="#D83131"/>
</g>
<path d="M37.2989 31.0166H19.9994H2.69984C2.69984 31.0166 1.50666 36.7781 8.29652 39.0447C9.45963 39.4329 10.6739 39.6137 11.8916 39.6137H19.9994H28.1072C29.325 39.6137 30.5392 39.4329 31.7024 39.0447C38.4921 36.7781 37.2989 31.0166 37.2989 31.0166Z" fill="url(#paint0_linear)"/>
<g style="mix-blend-mode:lighten">
<path d="M31.7032 39.044C30.5398 39.4327 29.3257 39.6137 28.1083 39.6137H26.2754C27.4936 39.6137 28.7077 39.4327 29.8711 39.044C36.6603 36.7775 35.4671 31.0166 35.4671 31.0166H37.3C37.3 31.0165 38.4932 36.7775 31.7032 39.044Z" fill="#FE860A"/>
</g>
<path d="M37.3624 26.1598C37.3624 27.5081 35.7957 28.239 34.7541 27.3829C34.326 27.031 33.8203 26.7522 33.0189 26.7522C30.8475 26.7522 30.8475 28.4722 28.6761 28.4722C26.5046 28.4722 26.5046 26.7522 24.3332 26.7522C22.1618 26.7522 22.1618 28.4722 19.9904 28.4722C17.8191 28.4722 17.8191 26.7522 15.6477 26.7522C13.4763 26.7522 13.4763 28.4722 11.3048 28.4722C9.13343 28.4722 9.13343 26.7522 6.96205 26.7522C6.16105 26.7522 5.65555 27.0309 5.22747 27.3826C4.18579 28.2387 2.61914 27.5079 2.61914 26.1596V22.9688H37.3622V26.1598H37.3624Z" fill="#BBEC6C"/>
<path d="M37.3638 22.9688V26.1598C37.3638 27.4214 35.992 28.1423 34.9629 27.5283C35.4174 27.2628 35.7441 26.776 35.7441 26.1598V22.9688H37.3638Z" fill="#A2E62E"/>
<path d="M2.63672 20.4121V22.9926H6.36135C7.13619 22.9926 7.76436 23.6207 7.76436 24.3956V31.8274C7.76436 32.8181 8.56747 33.6212 9.55813 33.6212C10.5488 33.6212 11.3518 32.8181 11.3518 31.8274V24.3956C11.3518 23.6207 11.98 22.9926 12.7548 22.9926H37.3625V20.4121H2.63672Z" fill="#FEE45A"/>
<path d="M35.7441 20.4111H37.3638V22.9915H35.7441V20.4111Z" fill="#FEDF30"/>
<path d="M37.2995 20.5879H2.70048C1.20906 20.5879 0 19.3789 0 17.8874V17.3557C0 15.8643 1.20906 14.6553 2.70048 14.6553H37.2996C38.791 14.6553 40.0001 15.8643 40.0001 17.3557V17.8874C40 19.3789 38.791 20.5879 37.2995 20.5879Z" fill="#6AD1C4"/>
<g style="mix-blend-mode:lighten">
<path d="M39.9992 17.3565V17.8883C39.9992 19.38 38.7907 20.5886 37.299 20.5886H35.7188C37.2105 20.5886 38.419 19.38 38.419 17.8883V17.3565C38.419 15.8655 37.2105 14.6562 35.7188 14.6562H37.299C38.7907 14.6563 39.9992 15.8656 39.9992 17.3565Z" fill="#904D24"/>
</g>
<path d="M20.0006 0C6.51298 0.195189 1.98135 7.5115 0.48534 11.7626C-0.0273228 13.2193 1.06569 14.7437 2.60991 14.7437H20.0006H37.3911C38.9467 14.7437 40.0256 13.2039 39.5068 11.7373C38.0018 7.48252 33.4614 0.194799 20.0006 0Z" fill="url(#paint1_linear)"/>
<g style="mix-blend-mode:lighten">
<path d="M37.3904 14.7442H37.1981C37.7219 14.1601 37.9375 13.3096 37.6455 12.4825C36.14 8.22698 31.5997 0.939804 18.1389 0.745082C14.6566 0.794931 11.7705 1.32037 9.38086 2.14505C12.0908 0.900314 15.5602 0.064336 19.9999 0C33.4607 0.1955 38.0011 7.48276 39.5064 11.7374C40.0246 13.2042 38.9456 14.7442 37.3904 14.7442Z" fill="#FE860A"/>
</g>
<g style="mix-blend-mode:color-burn">
<path d="M14.4333 6.18595C14.3395 6.18595 14.2444 6.16329 14.1561 6.11562C13.8723 5.96226 13.7666 5.60779 13.92 5.32396L14.4435 4.35534C14.5968 4.07151 14.9513 3.96582 15.2351 4.11918C15.5189 4.27254 15.6246 4.62701 15.4713 4.91084L14.9478 5.87946C14.8422 6.07496 14.6411 6.18595 14.4333 6.18595Z" fill="#E57917"/>
<path d="M19.9943 6.25178C19.6717 6.25178 19.4102 5.99023 19.4102 5.66762V4.56659C19.4102 4.24397 19.6717 3.98242 19.9943 3.98242C20.3169 3.98242 20.5785 4.24397 20.5785 4.56659V5.66762C20.5785 5.99023 20.3169 6.25178 19.9943 6.25178Z" fill="#E57917"/>
<path d="M25.5688 6.17765C25.3673 6.17765 25.1713 6.07328 25.063 5.88643L24.5106 4.93393C24.3487 4.65485 24.4437 4.29742 24.7228 4.13557C25.0019 3.97372 25.3593 4.06874 25.5212 4.34782L26.0736 5.30032C26.2354 5.57939 26.1404 5.93682 25.8613 6.09867C25.7691 6.15226 25.6684 6.17765 25.5688 6.17765Z" fill="#E57917"/>
</g>
<defs>
<linearGradient id="paint0_linear" x1="19.9994" y1="31.0166" x2="19.9994" y2="39.6137" gradientUnits="userSpaceOnUse">
<stop stop-color="#BC9CFF"/>
<stop offset="1" stop-color="#8BA4F9"/>
</linearGradient>
<linearGradient id="paint1_linear" x1="19.9979" y1="0" x2="19.9979" y2="14.7437" gradientUnits="userSpaceOnUse">
<stop stop-color="#BC9CFF"/>
<stop offset="1" stop-color="#8BA4F9"/>
</linearGradient>
</defs>
</svg>
